<svg xmlns="http://www.w3.org/2000/svg" xmlns:xlink="http://www.w3.org/1999/xlink" width="500" zoomAndPan="magnify" viewBox="0 0 375 374.999991" height="500" preserveAspectRatio="xMidYMid meet" version="1.2"><defs><clipPath id="e34faa7a89"><path d="M 30 120.023438 L 79 120.023438 L 79 235.523438 L 30 235.523438 Z M 30 120.023438 "/></clipPath><clipPath id="56e01159d3"><path d="M 82 120.023438 L 132 120.023438 L 132 235.523438 L 82 235.523438 Z M 82 120.023438 "/></clipPath></defs><g id="4c2fdcdb47"><g clip-rule="nonzero" clip-path="url(#e34faa7a89)"><path style=" stroke:none;fill-rule:nonzero;fill:#1e98a8;fill-opacity:1;" d="M 37.808594 120.027344 C 37.808594 120.027344 31.3125 144.355469 44.855469 164.058594 C 57.117188 181.898438 86.472656 185.894531 77.082031 235.210938 C 77.082031 235.210938 74.730469 208.671875 54.75 191.058594 C 42.539062 180.296875 17.429688 161.46875 37.808594 120.027344 "/></g><g clip-rule="nonzero" clip-path="url(#56e01159d3)"><path style=" stroke:none;fill-rule:nonzero;fill:#00214d;fill-opacity:1;" d="M 123.734375 120.027344 C 123.734375 120.027344 130.234375 144.355469 116.691406 164.058594 C 104.425781 181.898438 75.070312 185.894531 84.460938 235.210938 C 84.460938 235.210938 86.8125 208.671875 106.792969 191.058594 C 119.003906 180.296875 144.113281 161.46875 123.734375 120.027344 "/></g><path style=" stroke:none;fill-rule:nonzero;fill:#1e98a8;fill-opacity:1;" d="M 93.472656 167.816406 C 93.472656 176.558594 87.785156 183.644531 80.773438 183.644531 C 73.757812 183.644531 68.070312 176.558594 68.070312 167.816406 C 68.070312 159.074219 73.757812 151.988281 80.773438 151.988281 C 87.785156 151.988281 93.472656 159.074219 93.472656 167.816406 "/><g style="fill:#0b0f4b;fill-opacity:1;"><g transform="translate(74.595592, 250.770456)"><path style="stroke:none" d="M 7.4375 -8.109375 C 7.4375 -7.953125 7.359375 -7.875 7.203125 -7.875 L 2.828125 -7.875 C 2.773438 -7.875 2.75 -7.847656 2.75 -7.796875 L 2.75 -5.703125 C 2.75 -5.648438 2.773438 -5.625 2.828125 -5.625 L 5.671875 -5.625 C 5.828125 -5.625 5.90625 -5.546875 5.90625 -5.390625 L 5.90625 -4.21875 C 5.90625 -4.0625 5.828125 -3.984375 5.671875 -3.984375 L 2.828125 -3.984375 C 2.773438 -3.984375 2.75 -3.957031 2.75 -3.90625 L 2.75 -1.71875 C 2.75 -1.664062 2.773438 -1.640625 2.828125 -1.640625 L 7.203125 -1.640625 C 7.359375 -1.640625 7.4375 -1.5625 7.4375 -1.40625 L 7.4375 -0.234375 C 7.4375 -0.078125 7.359375 0 7.203125 0 L 1.0625 0 C 0.90625 0 0.828125 -0.078125 0.828125 -0.234375 L 0.828125 -9.28125 C 0.828125 -9.4375 0.90625 -9.515625 1.0625 -9.515625 L 7.203125 -9.515625 C 7.359375 -9.515625 7.4375 -9.4375 7.4375 -9.28125 Z M 7.4375 -8.109375 "/></g></g><g style="fill:#0b0f4b;fill-opacity:1;"><g transform="translate(83.699334, 250.770456)"><path style="stroke:none" d="M 4.046875 0.109375 C 3.335938 0.109375 2.71875 -0.00390625 2.1875 -0.234375 C 1.65625 -0.472656 1.242188 -0.804688 0.953125 -1.234375 C 0.660156 -1.660156 0.515625 -2.160156 0.515625 -2.734375 L 0.515625 -2.96875 C 0.515625 -3.113281 0.59375 -3.1875 0.75 -3.1875 L 2.171875 -3.1875 C 2.328125 -3.1875 2.40625 -3.128906 2.40625 -3.015625 L 2.40625 -2.828125 C 2.40625 -2.460938 2.566406 -2.15625 2.890625 -1.90625 C 3.222656 -1.65625 3.660156 -1.53125 4.203125 -1.53125 C 4.679688 -1.53125 5.035156 -1.628906 5.265625 -1.828125 C 5.492188 -2.035156 5.609375 -2.289062 5.609375 -2.59375 C 5.609375 -2.8125 5.535156 -2.992188 5.390625 -3.140625 C 5.242188 -3.296875 5.046875 -3.429688 4.796875 -3.546875 C 4.554688 -3.660156 4.164062 -3.816406 3.625 -4.015625 C 3.007812 -4.222656 2.492188 -4.429688 2.078125 -4.640625 C 1.660156 -4.859375 1.304688 -5.15625 1.015625 -5.53125 C 0.722656 -5.914062 0.578125 -6.382812 0.578125 -6.9375 C 0.578125 -7.476562 0.71875 -7.953125 1 -8.359375 C 1.28125 -8.765625 1.671875 -9.078125 2.171875 -9.296875 C 2.679688 -9.515625 3.257812 -9.625 3.90625 -9.625 C 4.59375 -9.625 5.207031 -9.5 5.75 -9.25 C 6.289062 -9.007812 6.710938 -8.671875 7.015625 -8.234375 C 7.316406 -7.796875 7.46875 -7.285156 7.46875 -6.703125 L 7.46875 -6.5625 C 7.46875 -6.40625 7.394531 -6.328125 7.25 -6.328125 L 5.8125 -6.328125 C 5.664062 -6.328125 5.59375 -6.375 5.59375 -6.46875 L 5.59375 -6.609375 C 5.59375 -6.984375 5.4375 -7.304688 5.125 -7.578125 C 4.8125 -7.847656 4.378906 -7.984375 3.828125 -7.984375 C 3.398438 -7.984375 3.066406 -7.890625 2.828125 -7.703125 C 2.585938 -7.523438 2.46875 -7.273438 2.46875 -6.953125 C 2.46875 -6.734375 2.535156 -6.546875 2.671875 -6.390625 C 2.804688 -6.234375 3.015625 -6.09375 3.296875 -5.96875 C 3.578125 -5.84375 4.003906 -5.679688 4.578125 -5.484375 C 5.210938 -5.242188 5.710938 -5.035156 6.078125 -4.859375 C 6.453125 -4.679688 6.785156 -4.410156 7.078125 -4.046875 C 7.378906 -3.679688 7.53125 -3.21875 7.53125 -2.65625 C 7.53125 -2.101562 7.382812 -1.617188 7.09375 -1.203125 C 6.8125 -0.785156 6.410156 -0.460938 5.890625 -0.234375 C 5.367188 -0.00390625 4.753906 0.109375 4.046875 0.109375 Z M 4.046875 0.109375 "/></g></g><g style="fill:#0b0f4b;fill-opacity:1;"><g transform="translate(92.911764, 250.770456)"><path style="stroke:none" d="M 4.75 -9.53125 C 5.351562 -9.53125 5.878906 -9.40625 6.328125 -9.15625 C 6.785156 -8.914062 7.140625 -8.570312 7.390625 -8.125 C 7.640625 -7.675781 7.765625 -7.160156 7.765625 -6.578125 C 7.765625 -6.003906 7.632812 -5.5 7.375 -5.0625 C 7.113281 -4.632812 6.75 -4.300781 6.28125 -4.0625 C 5.820312 -3.820312 5.285156 -3.703125 4.671875 -3.703125 L 2.765625 -3.703125 C 2.703125 -3.703125 2.671875 -3.671875 2.671875 -3.609375 L 2.671875 -0.234375 C 2.671875 -0.078125 2.597656 0 2.453125 0 L 1 0 C 0.84375 0 0.765625 -0.078125 0.765625 -0.234375 L 0.765625 -9.296875 C 0.765625 -9.453125 0.84375 -9.53125 1 -9.53125 Z M 4.46875 -5.234375 C 4.882812 -5.234375 5.21875 -5.351562 5.46875 -5.59375 C 5.726562 -5.832031 5.859375 -6.144531 5.859375 -6.53125 C 5.859375 -6.9375 5.726562 -7.257812 5.46875 -7.5 C 5.21875 -7.75 4.882812 -7.875 4.46875 -7.875 L 2.765625 -7.875 C 2.703125 -7.875 2.671875 -7.847656 2.671875 -7.796875 L 2.671875 -5.3125 C 2.671875 -5.257812 2.703125 -5.234375 2.765625 -5.234375 Z M 4.46875 -5.234375 "/></g></g><g style="fill:#0b0f4b;fill-opacity:1;"><g transform="translate(102.192127, 250.770456)"><path style="stroke:none" d="M 7.4375 -8.109375 C 7.4375 -7.953125 7.359375 -7.875 7.203125 -7.875 L 2.828125 -7.875 C 2.773438 -7.875 2.75 -7.847656 2.75 -7.796875 L 2.75 -5.703125 C 2.75 -5.648438 2.773438 -5.625 2.828125 -5.625 L 5.671875 -5.625 C 5.828125 -5.625 5.90625 -5.546875 5.90625 -5.390625 L 5.90625 -4.21875 C 5.90625 -4.0625 5.828125 -3.984375 5.671875 -3.984375 L 2.828125 -3.984375 C 2.773438 -3.984375 2.75 -3.957031 2.75 -3.90625 L 2.75 -1.71875 C 2.75 -1.664062 2.773438 -1.640625 2.828125 -1.640625 L 7.203125 -1.640625 C 7.359375 -1.640625 7.4375 -1.5625 7.4375 -1.40625 L 7.4375 -0.234375 C 7.4375 -0.078125 7.359375 0 7.203125 0 L 1.0625 0 C 0.90625 0 0.828125 -0.078125 0.828125 -0.234375 L 0.828125 -9.28125 C 0.828125 -9.4375 0.90625 -9.515625 1.0625 -9.515625 L 7.203125 -9.515625 C 7.359375 -9.515625 7.4375 -9.4375 7.4375 -9.28125 Z M 7.4375 -8.109375 "/></g></g><g style="fill:#0b0f4b;fill-opacity:1;"><g transform="translate(111.29587, 250.770456)"><path style="stroke:none" d="M 4.171875 0.109375 C 3.460938 0.109375 2.84375 -0.0234375 2.3125 -0.296875 C 1.78125 -0.578125 1.367188 -0.96875 1.078125 -1.46875 C 0.785156 -1.96875 0.640625 -2.539062 0.640625 -3.1875 L 0.640625 -6.328125 C 0.640625 -6.984375 0.785156 -7.5625 1.078125 -8.0625 C 1.367188 -8.5625 1.78125 -8.945312 2.3125 -9.21875 C 2.84375 -9.488281 3.460938 -9.625 4.171875 -9.625 C 4.867188 -9.625 5.484375 -9.492188 6.015625 -9.234375 C 6.546875 -8.972656 6.957031 -8.601562 7.25 -8.125 C 7.539062 -7.65625 7.6875 -7.109375 7.6875 -6.484375 C 7.6875 -6.398438 7.613281 -6.347656 7.46875 -6.328125 L 6.015625 -6.234375 L 5.96875 -6.234375 C 5.84375 -6.234375 5.78125 -6.257812 5.78125 -6.3125 L 5.78125 -6.390625 C 5.78125 -6.867188 5.628906 -7.253906 5.328125 -7.546875 C 5.035156 -7.835938 4.648438 -7.984375 4.171875 -7.984375 C 3.679688 -7.984375 3.289062 -7.835938 3 -7.546875 C 2.707031 -7.253906 2.5625 -6.867188 2.5625 -6.390625 L 2.5625 -3.109375 C 2.5625 -2.640625 2.707031 -2.257812 3 -1.96875 C 3.289062 -1.675781 3.679688 -1.53125 4.171875 -1.53125 C 4.648438 -1.53125 5.035156 -1.675781 5.328125 -1.96875 C 5.628906 -2.257812 5.78125 -2.640625 5.78125 -3.109375 C 5.78125 -3.160156 5.800781 -3.203125 5.84375 -3.234375 C 5.882812 -3.265625 5.941406 -3.273438 6.015625 -3.265625 L 7.46875 -3.1875 C 7.613281 -3.175781 7.6875 -3.15625 7.6875 -3.125 L 7.6875 -3.0625 C 7.6875 -2.4375 7.539062 -1.878906 7.25 -1.390625 C 6.957031 -0.910156 6.546875 -0.539062 6.015625 -0.28125 C 5.484375 -0.0195312 4.867188 0.109375 4.171875 0.109375 Z M 4.171875 0.109375 "/></g></g><g style="fill:#0b0f4b;fill-opacity:1;"><g transform="translate(120.725674, 250.770456)"><path style="stroke:none" d="M 1.0625 0 C 0.90625 0 0.828125 -0.078125 0.828125 -0.234375 L 0.828125 -9.28125 C 0.828125 -9.4375 0.90625 -9.515625 1.0625 -9.515625 L 2.515625 -9.515625 C 2.671875 -9.515625 2.75 -9.4375 2.75 -9.28125 L 2.75 -0.234375 C 2.75 -0.078125 2.671875 0 2.515625 0 Z M 1.0625 0 "/></g></g><g style="fill:#0b0f4b;fill-opacity:1;"><g transform="translate(125.468334, 250.770456)"><path style="stroke:none" d="M 6.953125 0 C 6.816406 0 6.726562 -0.0625 6.6875 -0.1875 L 6.3125 -1.453125 C 6.300781 -1.492188 6.269531 -1.515625 6.21875 -1.515625 L 2.890625 -1.515625 C 2.847656 -1.515625 2.820312 -1.492188 2.8125 -1.453125 L 2.4375 -0.1875 C 2.382812 -0.0625 2.296875 0 2.171875 0 L 0.59375 0 C 0.507812 0 0.445312 -0.0234375 0.40625 -0.078125 C 0.375 -0.128906 0.375 -0.191406 0.40625 -0.265625 L 3.296875 -9.328125 C 3.347656 -9.453125 3.4375 -9.515625 3.5625 -9.515625 L 5.5625 -9.515625 C 5.6875 -9.515625 5.769531 -9.453125 5.8125 -9.328125 L 8.71875 -0.265625 C 8.726562 -0.242188 8.734375 -0.210938 8.734375 -0.171875 C 8.734375 -0.117188 8.710938 -0.078125 8.671875 -0.046875 C 8.640625 -0.015625 8.585938 0 8.515625 0 Z M 3.296875 -3.09375 C 3.285156 -3.03125 3.304688 -3 3.359375 -3 L 5.765625 -3 C 5.816406 -3 5.835938 -3.03125 5.828125 -3.09375 L 4.609375 -7.25 C 4.597656 -7.28125 4.582031 -7.296875 4.5625 -7.296875 C 4.539062 -7.296875 4.519531 -7.28125 4.5 -7.25 Z M 3.296875 -3.09375 "/></g></g><g style="fill:#0b0f4b;fill-opacity:1;"><g transform="translate(135.754046, 250.770456)"><path style="stroke:none" d="M 1.0625 0 C 0.90625 0 0.828125 -0.078125 0.828125 -0.234375 L 0.828125 -9.28125 C 0.828125 -9.4375 0.90625 -9.515625 1.0625 -9.515625 L 2.515625 -9.515625 C 2.671875 -9.515625 2.75 -9.4375 2.75 -9.28125 L 2.75 -1.71875 C 2.75 -1.664062 2.773438 -1.640625 2.828125 -1.640625 L 7.1875 -1.640625 C 7.34375 -1.640625 7.421875 -1.5625 7.421875 -1.40625 L 7.421875 -0.234375 C 7.421875 -0.078125 7.34375 0 7.1875 0 Z M 1.0625 0 "/></g></g><g style="fill:#0b0f4b;fill-opacity:1;"><g transform="translate(144.694758, 250.770456)"><path style="stroke:none" d="M 1.0625 0 C 0.90625 0 0.828125 -0.078125 0.828125 -0.234375 L 0.828125 -9.28125 C 0.828125 -9.4375 0.90625 -9.515625 1.0625 -9.515625 L 2.515625 -9.515625 C 2.671875 -9.515625 2.75 -9.4375 2.75 -9.28125 L 2.75 -0.234375 C 2.75 -0.078125 2.671875 0 2.515625 0 Z M 1.0625 0 "/></g></g><g style="fill:#0b0f4b;fill-opacity:1;"><g transform="translate(149.437418, 250.770456)"><path style="stroke:none" d="M 4.046875 0.109375 C 3.335938 0.109375 2.71875 -0.00390625 2.1875 -0.234375 C 1.65625 -0.472656 1.242188 -0.804688 0.953125 -1.234375 C 0.660156 -1.660156 0.515625 -2.160156 0.515625 -2.734375 L 0.515625 -2.96875 C 0.515625 -3.113281 0.59375 -3.1875 0.75 -3.1875 L 2.171875 -3.1875 C 2.328125 -3.1875 2.40625 -3.128906 2.40625 -3.015625 L 2.40625 -2.828125 C 2.40625 -2.460938 2.566406 -2.15625 2.890625 -1.90625 C 3.222656 -1.65625 3.660156 -1.53125 4.203125 -1.53125 C 4.679688 -1.53125 5.035156 -1.628906 5.265625 -1.828125 C 5.492188 -2.035156 5.609375 -2.289062 5.609375 -2.59375 C 5.609375 -2.8125 5.535156 -2.992188 5.390625 -3.140625 C 5.242188 -3.296875 5.046875 -3.429688 4.796875 -3.546875 C 4.554688 -3.660156 4.164062 -3.816406 3.625 -4.015625 C 3.007812 -4.222656 2.492188 -4.429688 2.078125 -4.640625 C 1.660156 -4.859375 1.304688 -5.15625 1.015625 -5.53125 C 0.722656 -5.914062 0.578125 -6.382812 0.578125 -6.9375 C 0.578125 -7.476562 0.71875 -7.953125 1 -8.359375 C 1.28125 -8.765625 1.671875 -9.078125 2.171875 -9.296875 C 2.679688 -9.515625 3.257812 -9.625 3.90625 -9.625 C 4.59375 -9.625 5.207031 -9.5 5.75 -9.25 C 6.289062 -9.007812 6.710938 -8.671875 7.015625 -8.234375 C 7.316406 -7.796875 7.46875 -7.285156 7.46875 -6.703125 L 7.46875 -6.5625 C 7.46875 -6.40625 7.394531 -6.328125 7.25 -6.328125 L 5.8125 -6.328125 C 5.664062 -6.328125 5.59375 -6.375 5.59375 -6.46875 L 5.59375 -6.609375 C 5.59375 -6.984375 5.4375 -7.304688 5.125 -7.578125 C 4.8125 -7.847656 4.378906 -7.984375 3.828125 -7.984375 C 3.398438 -7.984375 3.066406 -7.890625 2.828125 -7.703125 C 2.585938 -7.523438 2.46875 -7.273438 2.46875 -6.953125 C 2.46875 -6.734375 2.535156 -6.546875 2.671875 -6.390625 C 2.804688 -6.234375 3.015625 -6.09375 3.296875 -5.96875 C 3.578125 -5.84375 4.003906 -5.679688 4.578125 -5.484375 C 5.210938 -5.242188 5.710938 -5.035156 6.078125 -4.859375 C 6.453125 -4.679688 6.785156 -4.410156 7.078125 -4.046875 C 7.378906 -3.679688 7.53125 -3.21875 7.53125 -2.65625 C 7.53125 -2.101562 7.382812 -1.617188 7.09375 -1.203125 C 6.8125 -0.785156 6.410156 -0.460938 5.890625 -0.234375 C 5.367188 -0.00390625 4.753906 0.109375 4.046875 0.109375 Z M 4.046875 0.109375 "/></g></g><g style="fill:#0b0f4b;fill-opacity:1;"><g transform="translate(158.649848, 250.770456)"><path style="stroke:none" d="M 7.328125 -9.515625 C 7.484375 -9.515625 7.5625 -9.4375 7.5625 -9.28125 L 7.5625 -8.09375 C 7.5625 -7.9375 7.484375 -7.859375 7.328125 -7.859375 L 4.96875 -7.859375 C 4.914062 -7.859375 4.890625 -7.832031 4.890625 -7.78125 L 4.890625 -0.234375 C 4.890625 -0.078125 4.8125 0 4.65625 0 L 3.203125 0 C 3.054688 0 2.984375 -0.078125 2.984375 -0.234375 L 2.984375 -7.78125 C 2.984375 -7.832031 2.953125 -7.859375 2.890625 -7.859375 L 0.609375 -7.859375 C 0.453125 -7.859375 0.375 -7.9375 0.375 -8.09375 L 0.375 -9.28125 C 0.375 -9.4375 0.453125 -9.515625 0.609375 -9.515625 Z M 7.328125 -9.515625 "/></g></g><g style="fill:#0b0f4b;fill-opacity:1;"><g transform="translate(167.76718, 250.770456)"><path style="stroke:none" d="M 6.953125 0 C 6.816406 0 6.726562 -0.0625 6.6875 -0.1875 L 6.3125 -1.453125 C 6.300781 -1.492188 6.269531 -1.515625 6.21875 -1.515625 L 2.890625 -1.515625 C 2.847656 -1.515625 2.820312 -1.492188 2.8125 -1.453125 L 2.4375 -0.1875 C 2.382812 -0.0625 2.296875 0 2.171875 0 L 0.59375 0 C 0.507812 0 0.445312 -0.0234375 0.40625 -0.078125 C 0.375 -0.128906 0.375 -0.191406 0.40625 -0.265625 L 3.296875 -9.328125 C 3.347656 -9.453125 3.4375 -9.515625 3.5625 -9.515625 L 5.5625 -9.515625 C 5.6875 -9.515625 5.769531 -9.453125 5.8125 -9.328125 L 8.71875 -0.265625 C 8.726562 -0.242188 8.734375 -0.210938 8.734375 -0.171875 C 8.734375 -0.117188 8.710938 -0.078125 8.671875 -0.046875 C 8.640625 -0.015625 8.585938 0 8.515625 0 Z M 3.296875 -3.09375 C 3.285156 -3.03125 3.304688 -3 3.359375 -3 L 5.765625 -3 C 5.816406 -3 5.835938 -3.03125 5.828125 -3.09375 L 4.609375 -7.25 C 4.597656 -7.28125 4.582031 -7.296875 4.5625 -7.296875 C 4.539062 -7.296875 4.519531 -7.28125 4.5 -7.25 Z M 3.296875 -3.09375 "/></g></g><g style="fill:#0b0f4b;fill-opacity:1;"><g transform="translate(178.052893, 250.770456)"><path style="stroke:none" d="M 4.046875 0.109375 C 3.335938 0.109375 2.71875 -0.00390625 2.1875 -0.234375 C 1.65625 -0.472656 1.242188 -0.804688 0.953125 -1.234375 C 0.660156 -1.660156 0.515625 -2.160156 0.515625 -2.734375 L 0.515625 -2.96875 C 0.515625 -3.113281 0.59375 -3.1875 0.75 -3.1875 L 2.171875 -3.1875 C 2.328125 -3.1875 2.40625 -3.128906 2.40625 -3.015625 L 2.40625 -2.828125 C 2.40625 -2.460938 2.566406 -2.15625 2.890625 -1.90625 C 3.222656 -1.65625 3.660156 -1.53125 4.203125 -1.53125 C 4.679688 -1.53125 5.035156 -1.628906 5.265625 -1.828125 C 5.492188 -2.035156 5.609375 -2.289062 5.609375 -2.59375 C 5.609375 -2.8125 5.535156 -2.992188 5.390625 -3.140625 C 5.242188 -3.296875 5.046875 -3.429688 4.796875 -3.546875 C 4.554688 -3.660156 4.164062 -3.816406 3.625 -4.015625 C 3.007812 -4.222656 2.492188 -4.429688 2.078125 -4.640625 C 1.660156 -4.859375 1.304688 -5.15625 1.015625 -5.53125 C 0.722656 -5.914062 0.578125 -6.382812 0.578125 -6.9375 C 0.578125 -7.476562 0.71875 -7.953125 1 -8.359375 C 1.28125 -8.765625 1.671875 -9.078125 2.171875 -9.296875 C 2.679688 -9.515625 3.257812 -9.625 3.90625 -9.625 C 4.59375 -9.625 5.207031 -9.5 5.75 -9.25 C 6.289062 -9.007812 6.710938 -8.671875 7.015625 -8.234375 C 7.316406 -7.796875 7.46875 -7.285156 7.46875 -6.703125 L 7.46875 -6.5625 C 7.46875 -6.40625 7.394531 -6.328125 7.25 -6.328125 L 5.8125 -6.328125 C 5.664062 -6.328125 5.59375 -6.375 5.59375 -6.46875 L 5.59375 -6.609375 C 5.59375 -6.984375 5.4375 -7.304688 5.125 -7.578125 C 4.8125 -7.847656 4.378906 -7.984375 3.828125 -7.984375 C 3.398438 -7.984375 3.066406 -7.890625 2.828125 -7.703125 C 2.585938 -7.523438 2.46875 -7.273438 2.46875 -6.953125 C 2.46875 -6.734375 2.535156 -6.546875 2.671875 -6.390625 C 2.804688 -6.234375 3.015625 -6.09375 3.296875 -5.96875 C 3.578125 -5.84375 4.003906 -5.679688 4.578125 -5.484375 C 5.210938 -5.242188 5.710938 -5.035156 6.078125 -4.859375 C 6.453125 -4.679688 6.785156 -4.410156 7.078125 -4.046875 C 7.378906 -3.679688 7.53125 -3.21875 7.53125 -2.65625 C 7.53125 -2.101562 7.382812 -1.617188 7.09375 -1.203125 C 6.8125 -0.785156 6.410156 -0.460938 5.890625 -0.234375 C 5.367188 -0.00390625 4.753906 0.109375 4.046875 0.109375 Z M 4.046875 0.109375 "/></g></g><g style="fill:#0b0f4b;fill-opacity:1;"><g transform="translate(187.265322, 250.770456)"><path style="stroke:none" d=""/></g></g><g style="fill:#0b0f4b;fill-opacity:1;"><g transform="translate(191.152074, 250.770456)"><path style="stroke:none" d="M 7.4375 -8.109375 C 7.4375 -7.953125 7.359375 -7.875 7.203125 -7.875 L 2.828125 -7.875 C 2.773438 -7.875 2.75 -7.847656 2.75 -7.796875 L 2.75 -5.703125 C 2.75 -5.648438 2.773438 -5.625 2.828125 -5.625 L 5.671875 -5.625 C 5.828125 -5.625 5.90625 -5.546875 5.90625 -5.390625 L 5.90625 -4.21875 C 5.90625 -4.0625 5.828125 -3.984375 5.671875 -3.984375 L 2.828125 -3.984375 C 2.773438 -3.984375 2.75 -3.957031 2.75 -3.90625 L 2.75 -1.71875 C 2.75 -1.664062 2.773438 -1.640625 2.828125 -1.640625 L 7.203125 -1.640625 C 7.359375 -1.640625 7.4375 -1.5625 7.4375 -1.40625 L 7.4375 -0.234375 C 7.4375 -0.078125 7.359375 0 7.203125 0 L 1.0625 0 C 0.90625 0 0.828125 -0.078125 0.828125 -0.234375 L 0.828125 -9.28125 C 0.828125 -9.4375 0.90625 -9.515625 1.0625 -9.515625 L 7.203125 -9.515625 C 7.359375 -9.515625 7.4375 -9.4375 7.4375 -9.28125 Z M 7.4375 -8.109375 "/></g></g><g style="fill:#0b0f4b;fill-opacity:1;"><g transform="translate(200.255816, 250.770456)"><path style="stroke:none" d="M 1.0625 0 C 0.90625 0 0.828125 -0.078125 0.828125 -0.234375 L 0.828125 -9.28125 C 0.828125 -9.4375 0.90625 -9.515625 1.0625 -9.515625 L 2.453125 -9.515625 C 2.578125 -9.515625 2.671875 -9.460938 2.734375 -9.359375 L 6.125 -3.71875 C 6.144531 -3.675781 6.164062 -3.660156 6.1875 -3.671875 C 6.207031 -3.679688 6.21875 -3.703125 6.21875 -3.734375 L 6.21875 -9.28125 C 6.21875 -9.4375 6.296875 -9.515625 6.453125 -9.515625 L 7.890625 -9.515625 C 8.035156 -9.515625 8.109375 -9.4375 8.109375 -9.28125 L 8.109375 -0.234375 C 8.109375 -0.078125 8.035156 0 7.890625 0 L 6.5 0 C 6.382812 0 6.289062 -0.0507812 6.21875 -0.15625 L 2.8125 -5.875 C 2.789062 -5.90625 2.769531 -5.914062 2.75 -5.90625 C 2.726562 -5.90625 2.71875 -5.882812 2.71875 -5.84375 L 2.734375 -0.234375 C 2.734375 -0.078125 2.65625 0 2.5 0 Z M 1.0625 0 "/></g></g><g style="fill:#0b0f4b;fill-opacity:1;"><g transform="translate(210.364925, 250.770456)"><path style="stroke:none" d=""/></g></g><g style="fill:#0b0f4b;fill-opacity:1;"><g transform="translate(214.251677, 250.770456)"><path style="stroke:none" d="M 4.75 -9.53125 C 5.351562 -9.53125 5.878906 -9.40625 6.328125 -9.15625 C 6.785156 -8.914062 7.140625 -8.570312 7.390625 -8.125 C 7.640625 -7.675781 7.765625 -7.160156 7.765625 -6.578125 C 7.765625 -6.003906 7.632812 -5.5 7.375 -5.0625 C 7.113281 -4.632812 6.75 -4.300781 6.28125 -4.0625 C 5.820312 -3.820312 5.285156 -3.703125 4.671875 -3.703125 L 2.765625 -3.703125 C 2.703125 -3.703125 2.671875 -3.671875 2.671875 -3.609375 L 2.671875 -0.234375 C 2.671875 -0.078125 2.597656 0 2.453125 0 L 1 0 C 0.84375 0 0.765625 -0.078125 0.765625 -0.234375 L 0.765625 -9.296875 C 0.765625 -9.453125 0.84375 -9.53125 1 -9.53125 Z M 4.46875 -5.234375 C 4.882812 -5.234375 5.21875 -5.351562 5.46875 -5.59375 C 5.726562 -5.832031 5.859375 -6.144531 5.859375 -6.53125 C 5.859375 -6.9375 5.726562 -7.257812 5.46875 -7.5 C 5.21875 -7.75 4.882812 -7.875 4.46875 -7.875 L 2.765625 -7.875 C 2.703125 -7.875 2.671875 -7.847656 2.671875 -7.796875 L 2.671875 -5.3125 C 2.671875 -5.257812 2.703125 -5.234375 2.765625 -5.234375 Z M 4.46875 -5.234375 "/></g></g><g style="fill:#0b0f4b;fill-opacity:1;"><g transform="translate(223.53204, 250.770456)"><path style="stroke:none" d="M 6.109375 0 C 5.984375 0 5.890625 -0.0546875 5.828125 -0.171875 L 4.15625 -3.875 C 4.132812 -3.914062 4.101562 -3.9375 4.0625 -3.9375 L 2.828125 -3.9375 C 2.773438 -3.9375 2.75 -3.910156 2.75 -3.859375 L 2.75 -0.234375 C 2.75 -0.078125 2.671875 0 2.515625 0 L 1.0625 0 C 0.90625 0 0.828125 -0.078125 0.828125 -0.234375 L 0.828125 -9.296875 C 0.828125 -9.453125 0.90625 -9.53125 1.0625 -9.53125 L 4.875 -9.53125 C 5.457031 -9.53125 5.96875 -9.410156 6.40625 -9.171875 C 6.84375 -8.929688 7.179688 -8.59375 7.421875 -8.15625 C 7.671875 -7.71875 7.796875 -7.21875 7.796875 -6.65625 C 7.796875 -6.039062 7.640625 -5.507812 7.328125 -5.0625 C 7.015625 -4.625 6.585938 -4.3125 6.046875 -4.125 C 6.023438 -4.125 6.007812 -4.109375 6 -4.078125 C 5.988281 -4.054688 5.992188 -4.039062 6.015625 -4.03125 L 7.796875 -0.265625 C 7.828125 -0.234375 7.84375 -0.195312 7.84375 -0.15625 C 7.84375 -0.101562 7.820312 -0.0625 7.78125 -0.03125 C 7.75 -0.0078125 7.703125 0 7.640625 0 Z M 2.828125 -7.875 C 2.773438 -7.875 2.75 -7.847656 2.75 -7.796875 L 2.75 -5.5 C 2.75 -5.445312 2.773438 -5.421875 2.828125 -5.421875 L 4.59375 -5.421875 C 4.976562 -5.421875 5.289062 -5.53125 5.53125 -5.75 C 5.769531 -5.976562 5.890625 -6.273438 5.890625 -6.640625 C 5.890625 -6.992188 5.769531 -7.285156 5.53125 -7.515625 C 5.289062 -7.753906 4.976562 -7.875 4.59375 -7.875 Z M 2.828125 -7.875 "/></g></g><g style="fill:#0b0f4b;fill-opacity:1;"><g transform="translate(233.043368, 250.770456)"><path style="stroke:none" d="M 1.0625 0 C 0.90625 0 0.828125 -0.078125 0.828125 -0.234375 L 0.828125 -9.28125 C 0.828125 -9.4375 0.90625 -9.515625 1.0625 -9.515625 L 2.515625 -9.515625 C 2.671875 -9.515625 2.75 -9.4375 2.75 -9.28125 L 2.75 -0.234375 C 2.75 -0.078125 2.671875 0 2.515625 0 Z M 1.0625 0 "/></g></g><g style="fill:#0b0f4b;fill-opacity:1;"><g transform="translate(237.786028, 250.770456)"><path style="stroke:none" d="M 1.078125 0 C 0.921875 0 0.84375 -0.078125 0.84375 -0.234375 L 0.84375 -9.28125 C 0.84375 -9.4375 0.921875 -9.515625 1.078125 -9.515625 L 2.53125 -9.515625 C 2.644531 -9.515625 2.734375 -9.460938 2.796875 -9.359375 L 4.765625 -6.1875 C 4.785156 -6.15625 4.804688 -6.140625 4.828125 -6.140625 C 4.847656 -6.140625 4.863281 -6.15625 4.875 -6.1875 L 6.875 -9.359375 C 6.9375 -9.460938 7.03125 -9.515625 7.15625 -9.515625 L 8.609375 -9.515625 C 8.753906 -9.515625 8.828125 -9.4375 8.828125 -9.28125 L 8.828125 -0.234375 C 8.828125 -0.078125 8.753906 0 8.609375 0 L 7.15625 0 C 7 0 6.921875 -0.078125 6.921875 -0.234375 L 6.921875 -6.109375 C 6.921875 -6.148438 6.90625 -6.175781 6.875 -6.1875 C 6.851562 -6.195312 6.835938 -6.179688 6.828125 -6.140625 L 5.453125 -3.90625 C 5.390625 -3.800781 5.296875 -3.75 5.171875 -3.75 L 4.484375 -3.75 C 4.367188 -3.75 4.28125 -3.800781 4.21875 -3.90625 L 2.859375 -6.140625 C 2.835938 -6.179688 2.816406 -6.195312 2.796875 -6.1875 C 2.773438 -6.175781 2.765625 -6.148438 2.765625 -6.109375 L 2.765625 -0.234375 C 2.765625 -0.078125 2.6875 0 2.53125 0 Z M 1.078125 0 "/></g></g><g style="fill:#0b0f4b;fill-opacity:1;"><g transform="translate(248.615177, 250.770456)"><path style="stroke:none" d="M 7.4375 -8.109375 C 7.4375 -7.953125 7.359375 -7.875 7.203125 -7.875 L 2.828125 -7.875 C 2.773438 -7.875 2.75 -7.847656 2.75 -7.796875 L 2.75 -5.703125 C 2.75 -5.648438 2.773438 -5.625 2.828125 -5.625 L 5.671875 -5.625 C 5.828125 -5.625 5.90625 -5.546875 5.90625 -5.390625 L 5.90625 -4.21875 C 5.90625 -4.0625 5.828125 -3.984375 5.671875 -3.984375 L 2.828125 -3.984375 C 2.773438 -3.984375 2.75 -3.957031 2.75 -3.90625 L 2.75 -1.71875 C 2.75 -1.664062 2.773438 -1.640625 2.828125 -1.640625 L 7.203125 -1.640625 C 7.359375 -1.640625 7.4375 -1.5625 7.4375 -1.40625 L 7.4375 -0.234375 C 7.4375 -0.078125 7.359375 0 7.203125 0 L 1.0625 0 C 0.90625 0 0.828125 -0.078125 0.828125 -0.234375 L 0.828125 -9.28125 C 0.828125 -9.4375 0.90625 -9.515625 1.0625 -9.515625 L 7.203125 -9.515625 C 7.359375 -9.515625 7.4375 -9.4375 7.4375 -9.28125 Z M 7.4375 -8.109375 "/></g></g><g style="fill:#0b0f4b;fill-opacity:1;"><g transform="translate(257.71892, 250.770456)"><path style="stroke:none" d="M 6.109375 0 C 5.984375 0 5.890625 -0.0546875 5.828125 -0.171875 L 4.15625 -3.875 C 4.132812 -3.914062 4.101562 -3.9375 4.0625 -3.9375 L 2.828125 -3.9375 C 2.773438 -3.9375 2.75 -3.910156 2.75 -3.859375 L 2.75 -0.234375 C 2.75 -0.078125 2.671875 0 2.515625 0 L 1.0625 0 C 0.90625 0 0.828125 -0.078125 0.828125 -0.234375 L 0.828125 -9.296875 C 0.828125 -9.453125 0.90625 -9.53125 1.0625 -9.53125 L 4.875 -9.53125 C 5.457031 -9.53125 5.96875 -9.410156 6.40625 -9.171875 C 6.84375 -8.929688 7.179688 -8.59375 7.421875 -8.15625 C 7.671875 -7.71875 7.796875 -7.21875 7.796875 -6.65625 C 7.796875 -6.039062 7.640625 -5.507812 7.328125 -5.0625 C 7.015625 -4.625 6.585938 -4.3125 6.046875 -4.125 C 6.023438 -4.125 6.007812 -4.109375 6 -4.078125 C 5.988281 -4.054688 5.992188 -4.039062 6.015625 -4.03125 L 7.796875 -0.265625 C 7.828125 -0.234375 7.84375 -0.195312 7.84375 -0.15625 C 7.84375 -0.101562 7.820312 -0.0625 7.78125 -0.03125 C 7.75 -0.0078125 7.703125 0 7.640625 0 Z M 2.828125 -7.875 C 2.773438 -7.875 2.75 -7.847656 2.75 -7.796875 L 2.75 -5.5 C 2.75 -5.445312 2.773438 -5.421875 2.828125 -5.421875 L 4.59375 -5.421875 C 4.976562 -5.421875 5.289062 -5.53125 5.53125 -5.75 C 5.769531 -5.976562 5.890625 -6.273438 5.890625 -6.640625 C 5.890625 -6.992188 5.769531 -7.285156 5.53125 -7.515625 C 5.289062 -7.753906 4.976562 -7.875 4.59375 -7.875 Z M 2.828125 -7.875 "/></g></g><g style="fill:#0b0f4b;fill-opacity:1;"><g transform="translate(267.230248, 250.770456)"><path style="stroke:none" d="M 4.21875 0.15625 C 3.507812 0.15625 2.882812 0.0078125 2.34375 -0.28125 C 1.800781 -0.570312 1.378906 -0.976562 1.078125 -1.5 C 0.785156 -2.019531 0.640625 -2.617188 0.640625 -3.296875 L 0.640625 -6.21875 C 0.640625 -6.882812 0.785156 -7.472656 1.078125 -7.984375 C 1.378906 -8.503906 1.800781 -8.90625 2.34375 -9.1875 C 2.882812 -9.476562 3.507812 -9.625 4.21875 -9.625 C 4.925781 -9.625 5.550781 -9.476562 6.09375 -9.1875 C 6.632812 -8.90625 7.050781 -8.503906 7.34375 -7.984375 C 7.644531 -7.472656 7.796875 -6.882812 7.796875 -6.21875 L 7.796875 -3.296875 C 7.796875 -2.617188 7.644531 -2.015625 7.34375 -1.484375 C 7.050781 -0.960938 6.632812 -0.554688 6.09375 -0.265625 C 5.550781 0.015625 4.925781 0.15625 4.21875 0.15625 Z M 4.21875 -1.5 C 4.71875 -1.5 5.117188 -1.65625 5.421875 -1.96875 C 5.734375 -2.289062 5.890625 -2.710938 5.890625 -3.234375 L 5.890625 -6.21875 C 5.890625 -6.75 5.734375 -7.175781 5.421875 -7.5 C 5.117188 -7.820312 4.71875 -7.984375 4.21875 -7.984375 C 3.71875 -7.984375 3.316406 -7.820312 3.015625 -7.5 C 2.710938 -7.175781 2.5625 -6.75 2.5625 -6.21875 L 2.5625 -3.234375 C 2.5625 -2.710938 2.710938 -2.289062 3.015625 -1.96875 C 3.316406 -1.65625 3.71875 -1.5 4.21875 -1.5 Z M 4.21875 -1.5 "/></g></g><g style="fill:#0b0f4b;fill-opacity:1;"><g transform="translate(276.836673, 250.770456)"><path style="stroke:none" d="M 4.046875 0.109375 C 3.335938 0.109375 2.71875 -0.00390625 2.1875 -0.234375 C 1.65625 -0.472656 1.242188 -0.804688 0.953125 -1.234375 C 0.660156 -1.660156 0.515625 -2.160156 0.515625 -2.734375 L 0.515625 -2.96875 C 0.515625 -3.113281 0.59375 -3.1875 0.75 -3.1875 L 2.171875 -3.1875 C 2.328125 -3.1875 2.40625 -3.128906 2.40625 -3.015625 L 2.40625 -2.828125 C 2.40625 -2.460938 2.566406 -2.15625 2.890625 -1.90625 C 3.222656 -1.65625 3.660156 -1.53125 4.203125 -1.53125 C 4.679688 -1.53125 5.035156 -1.628906 5.265625 -1.828125 C 5.492188 -2.035156 5.609375 -2.289062 5.609375 -2.59375 C 5.609375 -2.8125 5.535156 -2.992188 5.390625 -3.140625 C 5.242188 -3.296875 5.046875 -3.429688 4.796875 -3.546875 C 4.554688 -3.660156 4.164062 -3.816406 3.625 -4.015625 C 3.007812 -4.222656 2.492188 -4.429688 2.078125 -4.640625 C 1.660156 -4.859375 1.304688 -5.15625 1.015625 -5.53125 C 0.722656 -5.914062 0.578125 -6.382812 0.578125 -6.9375 C 0.578125 -7.476562 0.71875 -7.953125 1 -8.359375 C 1.28125 -8.765625 1.671875 -9.078125 2.171875 -9.296875 C 2.679688 -9.515625 3.257812 -9.625 3.90625 -9.625 C 4.59375 -9.625 5.207031 -9.5 5.75 -9.25 C 6.289062 -9.007812 6.710938 -8.671875 7.015625 -8.234375 C 7.316406 -7.796875 7.46875 -7.285156 7.46875 -6.703125 L 7.46875 -6.5625 C 7.46875 -6.40625 7.394531 -6.328125 7.25 -6.328125 L 5.8125 -6.328125 C 5.664062 -6.328125 5.59375 -6.375 5.59375 -6.46875 L 5.59375 -6.609375 C 5.59375 -6.984375 5.4375 -7.304688 5.125 -7.578125 C 4.8125 -7.847656 4.378906 -7.984375 3.828125 -7.984375 C 3.398438 -7.984375 3.066406 -7.890625 2.828125 -7.703125 C 2.585938 -7.523438 2.46875 -7.273438 2.46875 -6.953125 C 2.46875 -6.734375 2.535156 -6.546875 2.671875 -6.390625 C 2.804688 -6.234375 3.015625 -6.09375 3.296875 -5.96875 C 3.578125 -5.84375 4.003906 -5.679688 4.578125 -5.484375 C 5.210938 -5.242188 5.710938 -5.035156 6.078125 -4.859375 C 6.453125 -4.679688 6.785156 -4.410156 7.078125 -4.046875 C 7.378906 -3.679688 7.53125 -3.21875 7.53125 -2.65625 C 7.53125 -2.101562 7.382812 -1.617188 7.09375 -1.203125 C 6.8125 -0.785156 6.410156 -0.460938 5.890625 -0.234375 C 5.367188 -0.00390625 4.753906 0.109375 4.046875 0.109375 Z M 4.046875 0.109375 "/></g></g><g style="fill:#0b0f4b;fill-opacity:1;"><g transform="translate(286.049103, 250.770456)"><path style="stroke:none" d=""/></g></g><g style="fill:#0b0f4b;fill-opacity:1;"><g transform="translate(289.935855, 250.770456)"><path style="stroke:none" d="M 6.953125 0 C 6.816406 0 6.726562 -0.0625 6.6875 -0.1875 L 6.3125 -1.453125 C 6.300781 -1.492188 6.269531 -1.515625 6.21875 -1.515625 L 2.890625 -1.515625 C 2.847656 -1.515625 2.820312 -1.492188 2.8125 -1.453125 L 2.4375 -0.1875 C 2.382812 -0.0625 2.296875 0 2.171875 0 L 0.59375 0 C 0.507812 0 0.445312 -0.0234375 0.40625 -0.078125 C 0.375 -0.128906 0.375 -0.191406 0.40625 -0.265625 L 3.296875 -9.328125 C 3.347656 -9.453125 3.4375 -9.515625 3.5625 -9.515625 L 5.5625 -9.515625 C 5.6875 -9.515625 5.769531 -9.453125 5.8125 -9.328125 L 8.71875 -0.265625 C 8.726562 -0.242188 8.734375 -0.210938 8.734375 -0.171875 C 8.734375 -0.117188 8.710938 -0.078125 8.671875 -0.046875 C 8.640625 -0.015625 8.585938 0 8.515625 0 Z M 3.296875 -3.09375 C 3.285156 -3.03125 3.304688 -3 3.359375 -3 L 5.765625 -3 C 5.816406 -3 5.835938 -3.03125 5.828125 -3.09375 L 4.609375 -7.25 C 4.597656 -7.28125 4.582031 -7.296875 4.5625 -7.296875 C 4.539062 -7.296875 4.519531 -7.28125 4.5 -7.25 Z M 3.296875 -3.09375 "/></g></g><g style="fill:#0b0f4b;fill-opacity:1;"><g transform="translate(300.221567, 250.770456)"><path style="stroke:none" d="M 4.28125 0.109375 C 3.582031 0.109375 2.96875 -0.0234375 2.4375 -0.296875 C 1.90625 -0.566406 1.492188 -0.945312 1.203125 -1.4375 C 0.910156 -1.9375 0.765625 -2.507812 0.765625 -3.15625 L 0.765625 -9.28125 C 0.765625 -9.4375 0.84375 -9.515625 1 -9.515625 L 2.453125 -9.515625 C 2.597656 -9.515625 2.671875 -9.4375 2.671875 -9.28125 L 2.671875 -3.140625 C 2.671875 -2.660156 2.816406 -2.269531 3.109375 -1.96875 C 3.410156 -1.675781 3.800781 -1.53125 4.28125 -1.53125 C 4.757812 -1.53125 5.144531 -1.675781 5.4375 -1.96875 C 5.738281 -2.269531 5.890625 -2.660156 5.890625 -3.140625 L 5.890625 -9.28125 C 5.890625 -9.4375 5.960938 -9.515625 6.109375 -9.515625 L 7.578125 -9.515625 C 7.722656 -9.515625 7.796875 -9.4375 7.796875 -9.28125 L 7.796875 -3.15625 C 7.796875 -2.507812 7.648438 -1.9375 7.359375 -1.4375 C 7.066406 -0.945312 6.65625 -0.566406 6.125 -0.296875 C 5.59375 -0.0234375 4.976562 0.109375 4.28125 0.109375 Z M 4.28125 0.109375 "/></g></g><g style="fill:#0b0f4b;fill-opacity:1;"><g transform="translate(309.93668, 250.770456)"><path style="stroke:none" d="M 0.65625 0 C 0.59375 0 0.539062 -0.0078125 0.5 -0.03125 C 0.46875 -0.0625 0.453125 -0.101562 0.453125 -0.15625 C 0.453125 -0.195312 0.460938 -0.234375 0.484375 -0.265625 L 3.078125 -4.703125 C 3.078125 -4.734375 3.078125 -4.769531 3.078125 -4.8125 L 0.484375 -9.25 C 0.460938 -9.289062 0.453125 -9.328125 0.453125 -9.359375 C 0.453125 -9.410156 0.46875 -9.445312 0.5 -9.46875 C 0.539062 -9.5 0.59375 -9.515625 0.65625 -9.515625 L 2.234375 -9.515625 C 2.367188 -9.515625 2.460938 -9.460938 2.515625 -9.359375 L 4.234375 -6.3125 C 4.253906 -6.28125 4.273438 -6.265625 4.296875 -6.265625 C 4.328125 -6.265625 4.34375 -6.28125 4.34375 -6.3125 L 6.078125 -9.359375 C 6.128906 -9.460938 6.222656 -9.515625 6.359375 -9.515625 L 7.921875 -9.515625 C 7.984375 -9.515625 8.03125 -9.5 8.0625 -9.46875 C 8.101562 -9.445312 8.125 -9.410156 8.125 -9.359375 C 8.125 -9.328125 8.113281 -9.289062 8.09375 -9.25 L 5.5 -4.8125 C 5.488281 -4.769531 5.488281 -4.734375 5.5 -4.703125 L 8.09375 -0.265625 C 8.113281 -0.234375 8.125 -0.195312 8.125 -0.15625 C 8.125 -0.101562 8.101562 -0.0625 8.0625 -0.03125 C 8.03125 -0.0078125 7.984375 0 7.921875 0 L 6.359375 0 C 6.222656 0 6.128906 -0.0507812 6.078125 -0.15625 L 4.34375 -3.1875 C 4.34375 -3.21875 4.328125 -3.234375 4.296875 -3.234375 C 4.273438 -3.234375 4.253906 -3.21875 4.234375 -3.1875 L 2.5 -0.15625 C 2.445312 -0.0507812 2.351562 0 2.21875 0 Z M 0.65625 0 "/></g></g><g style="fill:#0b0f4b;fill-opacity:1;"><g transform="translate(319.678956, 250.770456)"><path style="stroke:none" d="M 1.0625 0 C 0.90625 0 0.828125 -0.078125 0.828125 -0.234375 L 0.828125 -9.28125 C 0.828125 -9.4375 0.90625 -9.515625 1.0625 -9.515625 L 2.515625 -9.515625 C 2.671875 -9.515625 2.75 -9.4375 2.75 -9.28125 L 2.75 -0.234375 C 2.75 -0.078125 2.671875 0 2.515625 0 Z M 1.0625 0 "/></g></g><g style="fill:#0b0f4b;fill-opacity:1;"><g transform="translate(324.421616, 250.770456)"><path style="stroke:none" d="M 1.0625 0 C 0.90625 0 0.828125 -0.078125 0.828125 -0.234375 L 0.828125 -9.28125 C 0.828125 -9.4375 0.90625 -9.515625 1.0625 -9.515625 L 2.515625 -9.515625 C 2.671875 -9.515625 2.75 -9.4375 2.75 -9.28125 L 2.75 -1.71875 C 2.75 -1.664062 2.773438 -1.640625 2.828125 -1.640625 L 7.1875 -1.640625 C 7.34375 -1.640625 7.421875 -1.5625 7.421875 -1.40625 L 7.421875 -0.234375 C 7.421875 -0.078125 7.34375 0 7.1875 0 Z M 1.0625 0 "/></g></g><g style="fill:#0b0f4b;fill-opacity:1;"><g transform="translate(333.362328, 250.770456)"><path style="stroke:none" d="M 1.0625 0 C 0.90625 0 0.828125 -0.078125 0.828125 -0.234375 L 0.828125 -9.28125 C 0.828125 -9.4375 0.90625 -9.515625 1.0625 -9.515625 L 2.515625 -9.515625 C 2.671875 -9.515625 2.75 -9.4375 2.75 -9.28125 L 2.75 -0.234375 C 2.75 -0.078125 2.671875 0 2.515625 0 Z M 1.0625 0 "/></g></g><g style="fill:#0b0f4b;fill-opacity:1;"><g transform="translate(338.104988, 250.770456)"><path style="stroke:none" d="M 4.21875 0.15625 C 3.507812 0.15625 2.882812 0.0078125 2.34375 -0.28125 C 1.800781 -0.570312 1.378906 -0.976562 1.078125 -1.5 C 0.785156 -2.019531 0.640625 -2.617188 0.640625 -3.296875 L 0.640625 -6.21875 C 0.640625 -6.882812 0.785156 -7.472656 1.078125 -7.984375 C 1.378906 -8.503906 1.800781 -8.90625 2.34375 -9.1875 C 2.882812 -9.476562 3.507812 -9.625 4.21875 -9.625 C 4.925781 -9.625 5.550781 -9.476562 6.09375 -9.1875 C 6.632812 -8.90625 7.050781 -8.503906 7.34375 -7.984375 C 7.644531 -7.472656 7.796875 -6.882812 7.796875 -6.21875 L 7.796875 -3.296875 C 7.796875 -2.617188 7.644531 -2.015625 7.34375 -1.484375 C 7.050781 -0.960938 6.632812 -0.554688 6.09375 -0.265625 C 5.550781 0.015625 4.925781 0.15625 4.21875 0.15625 Z M 4.21875 -1.5 C 4.71875 -1.5 5.117188 -1.65625 5.421875 -1.96875 C 5.734375 -2.289062 5.890625 -2.710938 5.890625 -3.234375 L 5.890625 -6.21875 C 5.890625 -6.75 5.734375 -7.175781 5.421875 -7.5 C 5.117188 -7.820312 4.71875 -7.984375 4.21875 -7.984375 C 3.71875 -7.984375 3.316406 -7.820312 3.015625 -7.5 C 2.710938 -7.175781 2.5625 -6.75 2.5625 -6.21875 L 2.5625 -3.234375 C 2.5625 -2.710938 2.710938 -2.289062 3.015625 -1.96875 C 3.316406 -1.65625 3.71875 -1.5 4.21875 -1.5 Z M 4.21875 -1.5 "/></g></g><g style="fill:#0b0f4b;fill-opacity:1;"><g transform="translate(347.711413, 250.770456)"><path style="stroke:none" d="M 4.046875 0.109375 C 3.335938 0.109375 2.71875 -0.00390625 2.1875 -0.234375 C 1.65625 -0.472656 1.242188 -0.804688 0.953125 -1.234375 C 0.660156 -1.660156 0.515625 -2.160156 0.515625 -2.734375 L 0.515625 -2.96875 C 0.515625 -3.113281 0.59375 -3.1875 0.75 -3.1875 L 2.171875 -3.1875 C 2.328125 -3.1875 2.40625 -3.128906 2.40625 -3.015625 L 2.40625 -2.828125 C 2.40625 -2.460938 2.566406 -2.15625 2.890625 -1.90625 C 3.222656 -1.65625 3.660156 -1.53125 4.203125 -1.53125 C 4.679688 -1.53125 5.035156 -1.628906 5.265625 -1.828125 C 5.492188 -2.035156 5.609375 -2.289062 5.609375 -2.59375 C 5.609375 -2.8125 5.535156 -2.992188 5.390625 -3.140625 C 5.242188 -3.296875 5.046875 -3.429688 4.796875 -3.546875 C 4.554688 -3.660156 4.164062 -3.816406 3.625 -4.015625 C 3.007812 -4.222656 2.492188 -4.429688 2.078125 -4.640625 C 1.660156 -4.859375 1.304688 -5.15625 1.015625 -5.53125 C 0.722656 -5.914062 0.578125 -6.382812 0.578125 -6.9375 C 0.578125 -7.476562 0.71875 -7.953125 1 -8.359375 C 1.28125 -8.765625 1.671875 -9.078125 2.171875 -9.296875 C 2.679688 -9.515625 3.257812 -9.625 3.90625 -9.625 C 4.59375 -9.625 5.207031 -9.5 5.75 -9.25 C 6.289062 -9.007812 6.710938 -8.671875 7.015625 -8.234375 C 7.316406 -7.796875 7.46875 -7.285156 7.46875 -6.703125 L 7.46875 -6.5625 C 7.46875 -6.40625 7.394531 -6.328125 7.25 -6.328125 L 5.8125 -6.328125 C 5.664062 -6.328125 5.59375 -6.375 5.59375 -6.46875 L 5.59375 -6.609375 C 5.59375 -6.984375 5.4375 -7.304688 5.125 -7.578125 C 4.8125 -7.847656 4.378906 -7.984375 3.828125 -7.984375 C 3.398438 -7.984375 3.066406 -7.890625 2.828125 -7.703125 C 2.585938 -7.523438 2.46875 -7.273438 2.46875 -6.953125 C 2.46875 -6.734375 2.535156 -6.546875 2.671875 -6.390625 C 2.804688 -6.234375 3.015625 -6.09375 3.296875 -5.96875 C 3.578125 -5.84375 4.003906 -5.679688 4.578125 -5.484375 C 5.210938 -5.242188 5.710938 -5.035156 6.078125 -4.859375 C 6.453125 -4.679688 6.785156 -4.410156 7.078125 -4.046875 C 7.378906 -3.679688 7.53125 -3.21875 7.53125 -2.65625 C 7.53125 -2.101562 7.382812 -1.617188 7.09375 -1.203125 C 6.8125 -0.785156 6.410156 -0.460938 5.890625 -0.234375 C 5.367188 -0.00390625 4.753906 0.109375 4.046875 0.109375 Z M 4.046875 0.109375 "/></g></g><g style="fill:#00214d;fill-opacity:1;"><g transform="translate(108.708367, 230.676393)"><path style="stroke:none" d="M 4.03125 -40.3125 L 12.71875 -40.3125 L 12.71875 0 L 4.03125 0 Z M 30.90625 -40.3125 L 39.578125 -40.3125 L 39.578125 0 L 30.90625 0 Z M 16.203125 -24.40625 L 27.40625 -24.40625 L 27.40625 -15.96875 L 16.203125 -15.96875 Z M 16.203125 -24.40625 "/></g></g><g style="fill:#00214d;fill-opacity:1;"><g transform="translate(161.360762, 230.676393)"><path style="stroke:none" d="M 17.78125 0.78125 C 15.8125 0.457031 13.984375 -0.171875 12.296875 -1.109375 C 10.609375 -2.054688 9.097656 -3.234375 7.765625 -4.640625 C 6.285156 -6.285156 5.222656 -8.082031 4.578125 -10.03125 C 3.929688 -11.976562 3.609375 -14.421875 3.609375 -17.359375 L 3.609375 -40.3125 L 12.296875 -40.3125 L 12.296875 -18.140625 C 12.296875 -16.566406 12.375 -15.238281 12.53125 -14.15625 C 12.6875 -13.070312 12.972656 -12.148438 13.390625 -11.390625 C 13.816406 -10.628906 14.378906 -9.984375 15.078125 -9.453125 C 15.785156 -8.929688 16.6875 -8.472656 17.78125 -8.078125 Z M 22.53125 -8.078125 C 23.613281 -8.429688 24.503906 -8.867188 25.203125 -9.390625 C 25.910156 -9.921875 26.488281 -10.585938 26.9375 -11.390625 C 27.375 -12.109375 27.671875 -12.957031 27.828125 -13.9375 C 27.992188 -14.925781 28.078125 -16.328125 28.078125 -18.140625 L 28.078125 -40.3125 L 36.75 -40.3125 L 36.75 -17.359375 C 36.75 -14.421875 36.425781 -11.976562 35.78125 -10.03125 C 35.144531 -8.082031 34.082031 -6.285156 32.59375 -4.640625 C 31.269531 -3.191406 29.742188 -2.003906 28.015625 -1.078125 C 26.285156 -0.160156 24.457031 0.457031 22.53125 0.78125 Z M 22.53125 -8.078125 "/></g></g><g style="fill:#00214d;fill-opacity:1;"><g transform="translate(210.820331, 230.676393)"><path style="stroke:none" d="M 4.03125 -24.40625 L 12.71875 -17.46875 L 12.71875 0 L 4.03125 0 Z M 35 -23.671875 L 23.796875 -14.703125 L 4.03125 -30.671875 L 4.03125 -41.75 L 23.859375 -25.734375 L 43.6875 -41.75 L 43.6875 0 L 35 0 Z M 35 -23.671875 "/></g></g><g style="fill:#00214d;fill-opacity:1;"><g transform="translate(267.629423, 230.676393)"><path style="stroke:none" d="M 11.140625 -27.53125 L 15.96875 -18.078125 L 6.6875 0 L -3.015625 0 Z M 27.171875 -6.75 L 15.125 -6.75 L 19.40625 -15.1875 L 22.828125 -15.1875 L 13.734375 -32.71875 L 18.625 -42.109375 L 40.375 0 L 30.609375 0 Z M 27.171875 -6.75 "/></g></g><g style="fill:#00214d;fill-opacity:1;"><g transform="translate(314.739544, 230.676393)"><path style="stroke:none" d="M 4.03125 -23.734375 L 12.71875 -16.140625 L 12.71875 0 L 4.03125 0 Z M 4.03125 -30.125 L 4.03125 -41.625 L 30.90625 -17.828125 L 30.90625 -40.3125 L 39.578125 -40.3125 L 39.578125 1.265625 Z M 4.03125 -30.125 "/></g></g></g></svg>