<svg xmlns="http://www.w3.org/2000/svg" xmlns:xlink="http://www.w3.org/1999/xlink" width="500" zoomAndPan="magnify" viewBox="0 0 375 374.999991" height="500" preserveAspectRatio="xMidYMid meet" version="1.2"><defs><clipPath id="60e0d7c3da"><path d="M 49 30.402344 L 183 30.402344 L 183 344.652344 L 49 344.652344 Z M 49 30.402344 "/></clipPath><clipPath id="45684190f6"><path d="M 192 30.402344 L 326 30.402344 L 326 344.652344 L 192 344.652344 Z M 192 30.402344 "/></clipPath></defs><g id="27107d86f5"><g clip-rule="nonzero" clip-path="url(#60e0d7c3da)"><path style=" stroke:none;fill-rule:nonzero;fill:#1e98a8;fill-opacity:1;" d="M 70.3125 30.410156 C 70.3125 30.410156 52.585938 96.765625 89.527344 150.507812 C 122.976562 199.175781 203.050781 210.066406 177.429688 344.585938 C 177.429688 344.585938 171.019531 272.203125 116.519531 224.160156 C 83.214844 194.804688 14.722656 143.445312 70.3125 30.410156 "/></g><g clip-rule="nonzero" clip-path="url(#45684190f6)"><path style=" stroke:none;fill-rule:nonzero;fill:#00214d;fill-opacity:1;" d="M 304.679688 30.410156 C 304.679688 30.410156 322.40625 96.765625 285.464844 150.507812 C 252.015625 199.175781 171.945312 210.066406 197.566406 344.585938 C 197.566406 344.585938 203.972656 272.203125 258.476562 224.160156 C 291.777344 194.804688 360.269531 143.445312 304.679688 30.410156 "/></g><path style=" stroke:none;fill-rule:nonzero;fill:#1e98a8;fill-opacity:1;" d="M 222.140625 160.765625 C 222.140625 184.609375 206.628906 203.9375 187.496094 203.9375 C 168.363281 203.9375 152.855469 184.609375 152.855469 160.765625 C 152.855469 136.914062 168.363281 117.585938 187.496094 117.585938 C 206.628906 117.585938 222.140625 136.914062 222.140625 160.765625 "/></g></svg>